<svg width="385" height="388" viewBox="0 0 385 388" fill="none" xmlns="http://www.w3.org/2000/svg">
<path d="M250.287 0.834961C328.253 27.7927 384.245 101.847 384.245 188.979C384.245 298.895 295.14 388 185.224 388C101.681 388 30.1634 336.525 0.651367 263.562C31.1076 332.517 100.093 380.641 180.32 380.642C288.745 380.642 376.642 292.745 376.642 184.32C376.641 100.542 324.164 29.0219 250.287 0.834961Z" fill="white"/>
<path d="M40.6855 194.282C41.8206 189.233 43.1123 181.894 44.5409 172.275C45.9794 162.656 47.8483 148.683 50.1478 130.355H51.6743C57.1149 141.246 61.8705 150.62 65.9412 158.478C70.0118 166.345 73.8672 173.596 77.5171 180.24C81.5291 173.156 85.7465 165.553 90.1694 157.431C94.5923 149.309 99.436 140.287 104.7 130.355H105.914C106.755 138.428 107.734 147.421 108.849 157.314C109.975 167.216 111.403 179.536 113.135 194.282C112.392 194.135 111.677 194.018 111.002 193.949C110.327 193.871 109.662 193.832 109.006 193.832C108.35 193.832 107.724 193.871 107.059 193.949C106.383 194.028 105.679 194.135 104.926 194.282C104.152 183.518 103.331 174.066 102.479 165.934C101.628 157.803 100.845 151.971 100.121 148.438C94.4357 157.979 89.5138 166.805 85.3355 174.927C81.167 183.049 78.2412 189.468 76.5679 194.194H75.3056C74.6207 191.797 73.6128 189.145 72.282 186.209C70.9512 183.274 69.0431 179.546 66.5577 174.995L52.2517 148.526C50.8426 158.4 49.7565 167.275 48.9737 175.172C48.2006 183.068 47.7798 189.438 47.7211 194.282C47.1242 194.135 46.5469 194.018 45.9989 193.949C45.4412 193.871 44.903 193.832 44.3648 193.832C43.8266 193.832 43.2591 193.871 42.6622 193.949C42.0653 194.028 41.3999 194.135 40.6855 194.282Z" fill="white"/>
<path d="M117.666 194.282C123.41 181.718 128.576 170.25 133.185 159.877C137.794 149.495 142.08 139.661 146.063 130.355H147.814C152.09 141.099 156.445 151.804 160.897 162.451C165.339 173.107 169.85 183.714 174.42 194.282C173.618 194.155 172.845 194.047 172.111 193.959C171.377 193.871 170.653 193.832 169.929 193.832C169.205 193.832 168.471 193.871 167.708 193.949C166.944 194.028 166.132 194.135 165.261 194.282C164.185 190.936 162.991 187.511 161.67 184.027C160.359 180.544 158.95 177.011 157.453 173.42L155.877 169.741C154.527 169.682 153.088 169.633 151.552 169.604C150.016 169.574 147.687 169.555 144.575 169.555C141.464 169.555 139.037 169.574 137.481 169.604C135.925 169.633 134.497 169.682 133.176 169.741C131.708 173.117 130.22 176.757 128.713 180.661C127.207 184.565 125.533 189.106 123.713 194.272C123.204 194.126 122.696 194.008 122.187 193.94C121.678 193.861 121.169 193.822 120.66 193.822C120.21 193.822 119.731 193.861 119.222 193.94C118.713 194.018 118.185 194.126 117.646 194.272L117.666 194.282ZM134.751 165.699C135.084 165.699 136.023 165.709 137.579 165.739C139.135 165.768 140.505 165.788 141.708 165.788C142.638 165.788 144.477 165.778 147.227 165.739C149.977 165.709 152.247 165.699 154.047 165.699L152.482 161.658C152.247 161.003 151.611 159.437 150.574 156.971C149.536 154.505 147.55 149.818 144.585 142.91L134.761 165.699H134.751Z" fill="white"/>
<path d="M237.398 191.542C233.092 192.795 228.875 193.754 224.745 194.409C220.616 195.065 216.682 195.398 212.944 195.398C202.415 195.398 194.088 192.56 187.953 186.875C181.818 181.189 178.755 173.518 178.755 163.86C178.755 153.693 182.052 145.562 188.648 139.475C195.243 133.389 204.069 130.346 215.136 130.346C219.559 130.346 223.679 130.835 227.475 131.823C231.272 132.811 234.697 134.279 237.75 136.217C237.27 137.626 236.85 138.986 236.497 140.317C236.135 141.647 235.822 142.968 235.558 144.289C233.102 140.757 230.088 138.125 226.497 136.393C222.906 134.661 218.63 133.79 213.668 133.79C205.919 133.79 199.685 136.451 194.959 141.775C190.233 147.098 187.875 154.182 187.875 163.038C187.875 171.894 190.331 178.773 195.253 184.057C200.175 189.341 206.682 191.973 214.784 191.973C217.387 191.973 219.902 191.718 222.348 191.21C224.784 190.701 227.231 189.908 229.687 188.832C229.687 188.264 229.736 186.924 229.824 184.82C229.912 182.706 229.961 181.043 229.961 179.82C229.961 178.381 229.931 176.806 229.873 175.084C229.814 173.361 229.726 171.023 229.609 168.068C230.656 168.214 231.438 168.312 231.967 168.361C232.485 168.41 232.994 168.449 233.464 168.479C233.914 168.449 234.403 168.41 234.942 168.361C235.48 168.312 236.263 168.224 237.27 168.068C237.212 171.326 237.153 174.164 237.094 176.571C237.036 178.978 237.006 180.964 237.006 182.52C237.006 184.311 237.036 185.955 237.094 187.432C237.153 188.91 237.261 190.28 237.407 191.542H237.398Z" fill="white"/>
<path d="M250.402 194.282C250.608 191.298 250.764 187.961 250.852 184.301C250.941 180.632 250.989 176.072 250.989 170.592V162.969C250.989 153.194 250.941 146.256 250.852 142.176C250.764 138.095 250.618 134.543 250.402 131.52C251.029 131.637 251.684 131.735 252.35 131.784C253.025 131.843 253.759 131.872 254.571 131.872C255.383 131.872 256.136 131.843 256.841 131.784C257.546 131.725 258.25 131.637 258.974 131.52C258.769 133.584 258.622 135.992 258.544 138.741C258.465 141.491 258.436 145.102 258.436 149.554V178.136C258.436 182.98 258.475 186.473 258.544 188.607C258.622 190.75 258.759 192.638 258.974 194.282C258.319 194.165 257.643 194.077 256.958 194.018C256.273 193.959 255.54 193.93 254.767 193.93C253.994 193.93 253.191 193.959 252.477 194.018C251.762 194.077 251.068 194.165 250.412 194.282H250.402Z" fill="white"/>
<path d="M323.615 190.329C321.316 192.032 318.439 193.323 314.985 194.184C311.531 195.055 307.558 195.486 303.076 195.486C292.88 195.486 284.983 192.648 279.396 186.963C273.799 181.278 271.01 173.283 271.01 162.96C271.01 152.636 274.102 145.111 280.277 139.201C286.451 133.291 294.729 130.346 305.102 130.346C308.722 130.346 312.186 130.708 315.513 131.441C318.83 132.175 321.942 133.271 324.848 134.739C324.369 136.324 324.007 137.841 323.752 139.289C323.498 140.737 323.371 142.166 323.371 143.575C321.189 140.17 318.596 137.665 315.611 136.08C312.617 134.494 309.035 133.702 304.847 133.702C297.137 133.702 291.138 136.266 286.882 141.393C282.625 146.52 280.492 153.742 280.492 163.038C280.492 172.334 282.606 179.076 286.843 184.233C291.08 189.39 296.853 191.973 304.182 191.973C307.626 191.973 311.051 191.317 314.456 189.996C317.862 188.675 321.12 186.767 324.232 184.252L323.645 190.309L323.615 190.329Z" fill="white"/>
<path d="M35.8125 281.077C36.9476 276.028 38.2392 268.689 39.6679 259.07C41.1063 249.451 42.9753 235.478 45.2748 217.15H46.8013C52.2419 228.041 56.9975 237.415 61.0681 245.273C65.1388 253.14 68.9941 260.391 72.644 267.035C76.6559 259.951 80.8734 252.348 85.2963 244.226C89.7193 236.104 94.5629 227.082 99.8274 217.15H101.041C101.882 225.223 102.861 234.216 103.976 244.108C105.102 254.011 106.53 266.331 108.262 281.077C107.519 280.93 106.804 280.813 106.129 280.744C105.454 280.676 104.788 280.627 104.133 280.627C103.477 280.627 102.851 280.666 102.186 280.744C101.52 280.823 100.806 280.93 100.052 281.077C99.2794 270.313 98.4574 260.861 97.6061 252.729C96.7548 244.598 95.972 238.766 95.2479 235.233C89.5627 244.774 84.6407 253.6 80.4624 261.722C76.2939 269.844 73.3681 276.263 71.6949 280.989H70.4326C69.7476 278.592 68.7397 275.94 67.4089 273.004C66.0782 270.069 64.1701 266.34 61.6846 261.79L47.3786 235.321C45.9696 245.195 44.8834 254.07 44.1005 261.966C43.3275 269.863 42.9068 276.233 42.8481 281.077C42.2512 280.93 41.6738 280.813 41.1259 280.744C40.5779 280.676 40.0299 280.627 39.4918 280.627C38.9536 280.627 38.386 280.666 37.7891 280.744C37.1922 280.823 36.5268 280.93 35.8125 281.077Z" fill="white"/>
<path d="M150.838 282.378C140.338 282.378 132.06 279.472 126.013 273.65C119.956 267.837 116.932 259.902 116.932 249.852C116.932 239.803 120.014 232.043 126.169 226.123C132.334 220.203 140.553 217.238 150.847 217.238C161.141 217.238 169.488 220.164 175.545 226.025C181.602 231.887 184.626 239.832 184.626 249.852C184.626 259.872 181.534 267.417 175.34 273.405C169.146 279.384 160.985 282.378 150.847 282.378H150.838ZM150.838 278.885C158.734 278.885 164.811 276.37 169.077 271.321C173.334 266.282 175.467 259.099 175.467 249.764C175.467 240.429 173.373 233.032 169.185 228.1C164.997 223.168 158.881 220.702 150.838 220.702C142.794 220.702 136.815 223.256 132.539 228.374C128.263 233.491 126.12 240.742 126.12 250.136C126.12 259.53 128.253 266.517 132.51 271.468C136.767 276.419 142.882 278.895 150.838 278.895V278.885Z" fill="white"/>
<path d="M226.154 282.378C215.655 282.378 207.377 279.472 201.329 273.65C195.272 267.837 192.249 259.902 192.249 249.852C192.249 239.803 195.331 232.043 201.486 226.123C207.651 220.203 215.87 217.238 226.164 217.238C236.458 217.238 244.805 220.164 250.862 226.025C256.919 231.887 259.943 239.832 259.943 249.852C259.943 259.872 256.851 267.417 250.657 273.405C244.463 279.384 236.302 282.378 226.164 282.378H226.154ZM226.154 278.885C234.051 278.885 240.128 276.37 244.394 271.321C248.651 266.282 250.784 259.099 250.784 249.764C250.784 240.429 248.69 233.032 244.502 228.1C240.314 223.168 234.198 220.702 226.154 220.702C218.111 220.702 212.132 223.256 207.856 228.374C203.58 233.491 201.437 240.742 201.437 250.136C201.437 259.53 203.57 266.517 207.827 271.468C212.083 276.419 218.199 278.895 226.154 278.895V278.885Z" fill="white"/>
<path d="M271.333 281.038C271.724 272.779 272.018 264.149 272.233 255.127C272.439 246.114 272.546 236.701 272.546 226.886V217.15H274.249C280.825 224.743 287.704 232.396 294.876 240.096C302.049 247.797 310.21 256.252 319.359 265.46C319.359 265.166 319.378 264.697 319.408 264.07C319.506 260.929 319.555 258.698 319.555 257.387C319.555 249.999 319.486 242.983 319.349 236.329C319.212 229.675 319.007 223.687 318.742 218.364C319.564 218.481 320.191 218.569 320.602 218.608C321.013 218.657 321.394 218.677 321.727 218.677C322.089 218.677 322.49 218.657 322.921 218.608C323.351 218.559 323.929 218.481 324.662 218.364C324.408 225.36 324.212 232.425 324.066 239.558C323.929 246.692 323.85 253.982 323.85 261.428C323.85 264.119 323.87 267.006 323.899 270.088C323.929 273.17 323.978 277.241 324.036 282.29H322.862C320.054 278.787 316.727 274.893 312.881 270.607C309.035 266.311 304.525 261.448 299.348 256.007L277.136 232.591C277.106 233.276 277.038 235.028 276.96 237.836C276.871 240.644 276.832 242.905 276.832 244.607C276.832 248.345 276.901 253.111 277.038 258.923C277.175 264.736 277.38 272.114 277.644 281.038C277.097 280.901 276.558 280.803 276.03 280.734C275.502 280.666 274.993 280.637 274.503 280.637C274.014 280.637 273.525 280.676 273.026 280.754C272.527 280.832 271.959 280.93 271.313 281.048L271.333 281.038Z" fill="white"/>
<path d="M40.6855 194.282C41.8206 189.233 43.1123 181.894 44.5409 172.275C45.9794 162.656 47.8483 148.683 50.1478 130.355H51.6743C57.1149 141.246 61.8705 150.62 65.9412 158.478C70.0118 166.345 73.8672 173.596 77.5171 180.24C81.5291 173.156 85.7465 165.553 90.1694 157.431C94.5923 149.309 99.436 140.287 104.7 130.355H105.914C106.755 138.428 107.734 147.421 108.849 157.314C109.975 167.216 111.403 179.536 113.135 194.282C112.392 194.135 111.677 194.018 111.002 193.949C110.327 193.871 109.662 193.832 109.006 193.832C108.35 193.832 107.724 193.871 107.059 193.949C106.384 194.028 105.679 194.135 104.926 194.282C104.152 183.518 103.331 174.066 102.479 165.934C101.628 157.803 100.845 151.971 100.121 148.438C94.4357 157.979 89.5138 166.805 85.3355 174.927C81.167 183.049 78.2412 189.468 76.5679 194.194H75.3056C74.6207 191.797 73.6128 189.145 72.282 186.209C70.9512 183.274 69.0431 179.546 66.5577 174.995L52.2517 148.526C50.8426 158.4 49.7565 167.275 48.9737 175.172C48.2006 183.068 47.7798 189.438 47.7211 194.282C47.1242 194.135 46.5469 194.018 45.9989 193.949C45.4412 193.871 44.903 193.832 44.3648 193.832C43.8266 193.832 43.2591 193.871 42.6622 193.949C42.0653 194.028 41.3999 194.135 40.6855 194.282Z" stroke="white" stroke-miterlimit="10"/>
<path d="M117.666 194.282C123.41 181.718 128.576 170.25 133.185 159.877C137.794 149.495 142.08 139.661 146.063 130.355H147.814C152.09 141.099 156.445 151.804 160.897 162.451C165.339 173.107 169.85 183.714 174.42 194.282C173.618 194.155 172.845 194.047 172.111 193.959C171.377 193.871 170.653 193.832 169.929 193.832C169.205 193.832 168.471 193.871 167.708 193.949C166.944 194.028 166.132 194.135 165.261 194.282C164.185 190.936 162.991 187.511 161.67 184.027C160.359 180.544 158.95 177.011 157.453 173.42L155.877 169.741C154.527 169.682 153.088 169.633 151.552 169.604C150.016 169.574 147.687 169.555 144.575 169.555C141.464 169.555 139.037 169.574 137.481 169.604C135.925 169.633 134.497 169.682 133.176 169.741C131.708 173.117 130.22 176.757 128.713 180.661C127.207 184.565 125.533 189.106 123.713 194.272C123.204 194.126 122.696 194.008 122.187 193.94C121.678 193.861 121.169 193.822 120.66 193.822C120.21 193.822 119.731 193.861 119.222 193.94C118.713 194.018 118.185 194.126 117.646 194.272L117.666 194.282ZM134.751 165.699C135.084 165.699 136.023 165.709 137.579 165.739C139.135 165.768 140.505 165.788 141.708 165.788C142.638 165.788 144.477 165.778 147.227 165.739C149.977 165.709 152.247 165.699 154.047 165.699L152.482 161.658C152.247 161.003 151.611 159.437 150.574 156.971C149.536 154.505 147.55 149.818 144.585 142.91L134.761 165.699H134.751Z" stroke="white" stroke-miterlimit="10"/>
<path d="M237.398 191.542C233.092 192.795 228.875 193.754 224.745 194.409C220.616 195.065 216.682 195.398 212.944 195.398C202.415 195.398 194.088 192.56 187.953 186.875C181.818 181.189 178.755 173.518 178.755 163.86C178.755 153.693 182.052 145.562 188.648 139.475C195.243 133.389 204.069 130.346 215.136 130.346C219.559 130.346 223.679 130.835 227.475 131.823C231.272 132.811 234.697 134.279 237.75 136.217C237.27 137.626 236.85 138.986 236.497 140.317C236.135 141.647 235.822 142.968 235.558 144.289C233.102 140.757 230.088 138.125 226.497 136.393C222.906 134.661 218.63 133.79 213.668 133.79C205.919 133.79 199.685 136.451 194.959 141.775C190.233 147.098 187.875 154.182 187.875 163.038C187.875 171.894 190.331 178.773 195.253 184.057C200.175 189.341 206.682 191.973 214.784 191.973C217.387 191.973 219.902 191.718 222.348 191.21C224.784 190.701 227.231 189.908 229.687 188.832C229.687 188.264 229.736 186.924 229.824 184.82C229.912 182.706 229.961 181.043 229.961 179.82C229.961 178.381 229.931 176.806 229.873 175.084C229.814 173.361 229.726 171.023 229.609 168.068C230.656 168.214 231.438 168.312 231.967 168.361C232.485 168.41 232.994 168.449 233.464 168.479C233.914 168.449 234.403 168.41 234.942 168.361C235.48 168.312 236.263 168.224 237.27 168.068C237.212 171.326 237.153 174.164 237.094 176.571C237.036 178.978 237.006 180.964 237.006 182.52C237.006 184.311 237.036 185.955 237.094 187.432C237.153 188.91 237.261 190.28 237.407 191.542H237.398Z" stroke="white" stroke-miterlimit="10"/>
<path d="M250.402 194.282C250.608 191.298 250.764 187.961 250.852 184.301C250.941 180.632 250.989 176.072 250.989 170.592V162.969C250.989 153.194 250.941 146.256 250.852 142.176C250.764 138.095 250.618 134.543 250.402 131.52C251.029 131.637 251.684 131.735 252.35 131.784C253.025 131.843 253.759 131.872 254.571 131.872C255.383 131.872 256.136 131.843 256.841 131.784C257.546 131.725 258.25 131.637 258.974 131.52C258.769 133.584 258.622 135.992 258.544 138.741C258.465 141.491 258.436 145.102 258.436 149.554V178.136C258.436 182.98 258.475 186.473 258.544 188.607C258.622 190.75 258.759 192.638 258.974 194.282C258.319 194.165 257.643 194.077 256.958 194.018C256.273 193.959 255.54 193.93 254.767 193.93C253.994 193.93 253.191 193.959 252.477 194.018C251.762 194.077 251.068 194.165 250.412 194.282H250.402Z" stroke="white" stroke-miterlimit="10"/>
<path d="M323.615 190.329C321.316 192.032 318.439 193.323 314.985 194.184C311.531 195.055 307.558 195.486 303.076 195.486C292.88 195.486 284.983 192.648 279.396 186.963C273.799 181.278 271.01 173.283 271.01 162.96C271.01 152.636 274.102 145.111 280.277 139.201C286.451 133.291 294.729 130.346 305.102 130.346C308.722 130.346 312.186 130.708 315.513 131.441C318.83 132.175 321.942 133.271 324.848 134.739C324.369 136.324 324.007 137.841 323.752 139.289C323.498 140.737 323.371 142.166 323.371 143.575C321.189 140.17 318.596 137.665 315.611 136.08C312.617 134.494 309.035 133.702 304.847 133.702C297.137 133.702 291.138 136.266 286.882 141.393C282.625 146.52 280.492 153.742 280.492 163.038C280.492 172.334 282.606 179.076 286.843 184.233C291.08 189.39 296.853 191.973 304.182 191.973C307.626 191.973 311.051 191.317 314.456 189.996C317.862 188.675 321.12 186.767 324.232 184.252L323.645 190.309L323.615 190.329Z" stroke="white" stroke-miterlimit="10"/>
<path d="M35.8125 281.077C36.9476 276.028 38.2392 268.689 39.6679 259.07C41.1063 249.451 42.9753 235.478 45.2748 217.15H46.8013C52.2419 228.041 56.9975 237.415 61.0681 245.273C65.1388 253.14 68.9941 260.391 72.644 267.035C76.6559 259.951 80.8734 252.348 85.2963 244.226C89.7193 236.104 94.5629 227.082 99.8274 217.15H101.041C101.882 225.223 102.861 234.216 103.976 244.108C105.102 254.011 106.53 266.331 108.262 281.077C107.519 280.93 106.804 280.813 106.129 280.744C105.454 280.676 104.788 280.627 104.133 280.627C103.477 280.627 102.851 280.666 102.186 280.744C101.52 280.823 100.806 280.93 100.052 281.077C99.2794 270.313 98.4574 260.861 97.6061 252.729C96.7548 244.598 95.972 238.766 95.2479 235.233C89.5627 244.774 84.6407 253.6 80.4624 261.722C76.2939 269.844 73.3681 276.263 71.6949 280.989H70.4326C69.7476 278.592 68.7397 275.94 67.4089 273.004C66.0782 270.069 64.1701 266.34 61.6846 261.79L47.3786 235.321C45.9696 245.195 44.8834 254.07 44.1005 261.966C43.3275 269.863 42.9068 276.233 42.8481 281.077C42.2512 280.93 41.6738 280.813 41.1259 280.744C40.5779 280.676 40.0299 280.627 39.4918 280.627C38.9536 280.627 38.386 280.666 37.7891 280.744C37.1922 280.823 36.5268 280.93 35.8125 281.077Z" stroke="white" stroke-miterlimit="10"/>
<path d="M150.838 282.378C140.338 282.378 132.06 279.472 126.013 273.65C119.956 267.837 116.932 259.902 116.932 249.852C116.932 239.803 120.014 232.043 126.169 226.123C132.334 220.203 140.553 217.238 150.847 217.238C161.141 217.238 169.488 220.164 175.545 226.025C181.602 231.887 184.626 239.832 184.626 249.852C184.626 259.872 181.534 267.417 175.34 273.405C169.146 279.384 160.985 282.378 150.847 282.378H150.838ZM150.838 278.885C158.734 278.885 164.811 276.37 169.077 271.321C173.334 266.282 175.467 259.099 175.467 249.764C175.467 240.429 173.373 233.032 169.185 228.1C164.997 223.168 158.881 220.702 150.838 220.702C142.794 220.702 136.815 223.256 132.539 228.374C128.263 233.491 126.12 240.742 126.12 250.136C126.12 259.53 128.253 266.517 132.51 271.468C136.767 276.419 142.882 278.895 150.838 278.895V278.885Z" stroke="white" stroke-miterlimit="10"/>
<path d="M226.154 282.378C215.655 282.378 207.377 279.472 201.329 273.65C195.272 267.837 192.249 259.902 192.249 249.852C192.249 239.803 195.331 232.043 201.486 226.123C207.651 220.203 215.87 217.238 226.164 217.238C236.458 217.238 244.805 220.164 250.862 226.025C256.919 231.887 259.943 239.832 259.943 249.852C259.943 259.872 256.851 267.417 250.657 273.405C244.463 279.384 236.302 282.378 226.164 282.378H226.154ZM226.154 278.885C234.051 278.885 240.128 276.37 244.394 271.321C248.651 266.282 250.784 259.099 250.784 249.764C250.784 240.429 248.69 233.032 244.502 228.1C240.314 223.168 234.198 220.702 226.154 220.702C218.111 220.702 212.132 223.256 207.856 228.374C203.58 233.491 201.437 240.742 201.437 250.136C201.437 259.53 203.57 266.517 207.827 271.468C212.083 276.419 218.199 278.895 226.154 278.895V278.885Z" stroke="white" stroke-miterlimit="10"/>
<path d="M271.333 281.038C271.724 272.779 272.018 264.149 272.233 255.127C272.439 246.114 272.546 236.701 272.546 226.886V217.15H274.249C280.825 224.743 287.704 232.396 294.876 240.096C302.049 247.797 310.21 256.252 319.359 265.46C319.359 265.166 319.378 264.697 319.408 264.07C319.506 260.929 319.555 258.698 319.555 257.387C319.555 249.999 319.486 242.983 319.349 236.329C319.212 229.675 319.007 223.687 318.742 218.364C319.564 218.481 320.191 218.569 320.602 218.608C321.013 218.657 321.394 218.677 321.727 218.677C322.089 218.677 322.49 218.657 322.921 218.608C323.351 218.559 323.929 218.481 324.662 218.364C324.408 225.36 324.212 232.425 324.066 239.558C323.929 246.692 323.85 253.982 323.85 261.428C323.85 264.119 323.87 267.006 323.899 270.088C323.929 273.17 323.978 277.241 324.036 282.29H322.862C320.054 278.787 316.727 274.893 312.881 270.607C309.035 266.311 304.525 261.448 299.348 256.007L277.136 232.591C277.106 233.276 277.038 235.028 276.96 237.836C276.871 240.644 276.832 242.905 276.832 244.607C276.832 248.345 276.901 253.111 277.038 258.923C277.175 264.736 277.38 272.114 277.644 281.038C277.097 280.901 276.558 280.803 276.03 280.734C275.502 280.666 274.993 280.637 274.503 280.637C274.014 280.637 273.525 280.676 273.026 280.754C272.527 280.832 271.959 280.93 271.313 281.048L271.333 281.038Z" stroke="white" stroke-miterlimit="10"/>
<path d="M194.861 48.8053C201.721 54.0795 205.204 61.4283 201.349 70.7829C200.468 72.5443 199.989 72.8672 198.228 71.8789C188.149 67.4168 180.761 55.7039 179.577 52.5433C181.612 61.7218 187.121 68.8063 195.126 74.4622C194.392 74.6676 171.005 68.5421 171.778 45.3316C172.111 38.7559 174.909 31.8671 183.276 25.2914C183.491 29.137 182.317 39.1669 194.861 48.8151V48.8053Z" fill="white"/>
<path d="M167.228 31.28C167.228 31.28 139.516 65.3325 154.977 90.3435C174.146 121.353 216.849 96.0581 216.849 96.0581C216.849 96.0581 191.994 98.3674 175.78 74.9807C159.566 51.594 167.238 31.28 167.238 31.28H167.228Z" fill="white"/>
</svg>
